<svg xmlns="http://www.w3.org/2000/svg" fill="none" aria-hidden="true" class="slds-illustration__svg" viewBox="0 0 470 264"><style>.g{stroke-width:3}.h{stroke-linecap:round}.i{fill:#c2e8ff}.j{stroke:#8cd3f8}.k{stroke-linejoin:round}</style><g stroke="#c2e8ff" class="g h k"><path d="M56 172l90.5-74 66 54M195 135l21.5-18 67.5 55m154-1l-46.5-37-33 27m9.5-10l-9.5-8-34.5 29" vector-effect="non-scaling-stroke"/><circle cx="64" cy="64" r="45" stroke-dasharray="135 1 1 18" transform="rotate(230 196 -8)" vector-effect="non-scaling-stroke"/><circle cx="64" cy="64" r="33" stroke-dasharray="107 10" transform="rotate(150 202.3 92)" vector-effect="non-scaling-stroke"/></g><g class="i"><path d="M40.84 152.82c.64-2.1 1.68-2.1 2.33 0L49 172H35l5.84-19.18z" vector-effect="non-scaling-stroke"/><path d="M49.97 159.86c.57-2.13 1.5-2.13 2.06 0L55 171h-8l2.97-11.14zm224.76-5.3c.7-2.1 1.77-2.07 2.4.04l3.87 13.16-9-5 2.73-8.2z" vector-effect="non-scaling-stroke"/><path d="M283.48 151.85c-.6-2.13-1.56-2.12-2.16 0l-4.28 15.3L289.4 173l-5.92-21.15zm159.44 1c.6-2.13 1.56-2.13 2.16 0L451 174h-14l5.92-21.15zm-115.48 6.4c.48-1.8 1.25-1.8 1.73 0l1.83 6.86-6.7 4.9 3.14-11.76z" vector-effect="non-scaling-stroke"/></g><path fill="#fff" d="M118.9 113.7l3.7 1.6 2.5 6.9-16.1 10.7H98.1z"/><path d="M18 172.5h450m-156 .5l135 59m-137-59L93 262M2 172.5h6" class="g h j" vector-effect="non-scaling-stroke"/><g stroke="#c2e8ff" class="g h"><path d="M63 109.5h19c-.72-5.43 1.08-9.97 5.4-13.62 4.97-4.07 10.87-3.16 14.03-1.75s5.52 3.34 7.15 6.98c.7 1.53 1.16 2.83 1.4 3.9" vector-effect="non-scaling-stroke"/><path d="M102 112.5c1.06-3.65 3.22-6.04 6.5-7.17 4.92-1.7 9.58.56 11.44 2.82s2.45 4.07 2.8 5.97a19.9 19.9 0 0 1 .25 4.38c4.14-.17 6.92.66 8.33 2.5a7.4 7.4 0 0 1 1.26 6.75 6.88 6.88 0 0 1-6.6 4.75H47m-10-13h65m-83 0h8m187-42h19c-.72-5.43 1.08-9.97 5.4-13.62 4.97-4.07 10.87-3.16 14.03-1.75s5.52 3.34 7.15 6.98c.7 1.53 1.16 2.83 1.4 3.9" vector-effect="non-scaling-stroke"/><path d="M253 80.5c1.06-3.65 3.22-6.04 6.5-7.17 4.92-1.7 9.58.56 11.44 2.82s2.45 4.07 2.8 5.97a19.9 19.9 0 0 1 .25 4.38c4.14-.17 6.92.66 8.33 2.5a7.4 7.4 0 0 1 1.26 6.75 6.88 6.88 0 0 1-6.6 4.75h-79m-10-13h65m-83 0h8" vector-effect="non-scaling-stroke"/></g><path d="M178.42 154.45l14.34 49.5a2 2 0 0 1-1.92 2.56h-28.68a2 2 0 0 1-1.92-2.56l14.34-49.5a2 2 0 0 1 3.84 0zm245 0l14.34 49.5a2 2 0 0 1-1.92 2.56h-28.68a2 2 0 0 1-1.92-2.56l14.34-49.5a2 2 0 0 1 3.84 0zM123.55 137.5l25.25 86.44a2 2 0 0 1-1.92 2.56h-46.66a2 2 0 0 1-1.92-2.56l25.25-86.44z" class="i" vector-effect="non-scaling-stroke"/><g class="g j k"><path d="M176.5 152.8l17 53.7h-34zm0 6.02v55-55z" vector-effect="non-scaling-stroke"/><path d="M184.5 181.82l-8 10c0-.2 2.67-3.54 8-10zm237-34.02l17 58.7h-34zm0 6.02v60-60z" vector-effect="non-scaling-stroke"/><path d="M429.5 181.82l-8 10c0-.2 2.67-3.54 8-10zm-306-42.32l26 87h-52zm.05 6v90-90z" vector-effect="non-scaling-stroke"/><path d="M112.55 181.5c7.33 7.08 11 10.75 11 11 0-.25-3.67-3.92-11-11zm12 26l14-16c0-.25-4.67 5.08-14 16z" vector-effect="non-scaling-stroke"/></g><circle cx="336" cy="47" r="23" class="i" vector-effect="non-scaling-stroke"/><circle cx="336" cy="47" r="23" class="g j" vector-effect="non-scaling-stroke"/></svg>